<?xml version="1.0" encoding="utf-8"?>
<!-- Svg Vector Icons : http://www.onlinewebfonts.com/icon -->
<!DOCTYPE svg PUBLIC "-//W3C//DTD SVG 1.1//EN" "http://www.w3.org/Graphics/SVG/1.1/DTD/svg11.dtd">
<svg version="1.1" xmlns="http://www.w3.org/2000/svg" xmlns:xlink="http://www.w3.org/1999/xlink" x="0px" y="0px" viewBox="0 0 256 256" enable-background="new 0 0 256 256" xml:space="preserve">
<metadata> Svg Vector Icons : http://www.onlinewebfonts.com/icon </metadata>
<g><g><path fill="#000000" d="M203.3,105.2c-0.6,0-1.1,0-1.6,0c-10.8,9.4-22.8,17-35.6,22.9c15.4,9.8,32.6,16.9,50.8,20.7l-5.9-43.7C208.5,105.1,205.9,105.2,203.3,105.2z"/><path fill="#000000" d="M44,173.1l28-0.4l20.2-32c-13.5-1.1-26.6-4-39.3-8.7L44,173.1z"/><path fill="#000000" d="M38.9,196.7c4.6-0.4,9.3-0.6,14.1-0.6c25.3,0,49.7,5.2,71.6,10.4l-22-25.4l-60.6,0.9L38.9,196.7z"/><path fill="#000000" d="M181.5,216.8c0.7,0,1.4,0,2.2,0l17-34.9l20.5-1.9l-3.3-24.6c-21.1-4.1-41.1-12.5-58.6-24.3c-17.2,6.8-35.6,10.4-54.6,10.4c-1.7,0-3.5-0.1-5.2-0.1l-19.8,31.4l27.2-0.4l32.7,37.7l-0.2,0.1C154.9,213.7,169.6,216.8,181.5,216.8z"/><path fill="#000000" d="M230.1,80.2l-9,1.4c-5.6,0.9-11.5,1.3-17.8,1.3c-17.8,0-36.4-3.4-54.5-6.8c-4.7-0.9-9.4-1.7-14.1-2.6c-1.3,2.8-2.9,5.5-4.7,8.3c30.6,5.1,62.1,13.3,92.5,8.6l13.2,97.1l-29.1,2.7c0,0-13.5,28.4-19.7,39.8c-41,3-102.9-30.8-165.2-17.2l27-124.4c3.4-1.8,6.9-3.4,10.5-4.6c-1.8-2.6-3.4-5.1-4.8-7.7c-3.4,1.3-6.7,2.8-9.8,4.5l-3.7,2L10,224.5l13.6-3c9.3-2,19-3,29.4-3c25.5,0,51.1,6.1,73.7,11.5c19.8,4.7,38.4,9.2,54.8,9.2c3.2,0,6.3-0.2,9.2-0.5l2.5-0.3l52.8-41.3L230.1,80.2z"/><path fill="#000000" d="M129.4,95.3c8.2,10.1,17.6,19.1,28,26.8c10.9-4.5,21.3-10.3,30.8-17.5c-14.7-1.2-29.3-3.9-43.4-6.5C139.6,97.1,134.5,96.2,129.4,95.3z"/><path fill="#000000" d="M150.5,124.6c-11.3-8.8-21.4-19.1-30-30.7c-4.1,4.7-8.8,9.7-14,15.3L93.9,122l-12.5-12.8c-4.9-5.2-9.3-9.9-13.2-14.4c-2.6,0.8-5.2,1.7-7.7,2.8l-5.6,25.6c15.8,6,32.5,9.1,49.7,9.1C120.4,132.4,135.9,129.7,150.5,124.6z"/><path fill="#000000" d="M93.9,109.4c0,0,1.1-1,1.3-1.3c22.4-23.9,35.1-35.9,35.1-54.9c0-20.1-16.3-36.4-36.4-36.4c-20.1,0-36.4,16.3-36.4,36.4c0,18.9,12.7,31,35.1,54.9C92.9,108.4,93.9,109.4,93.9,109.4z M77.6,48c0-9.2,7.4-16.6,16.5-16.6c9.1,0,16.5,7.4,16.5,16.6c0,9.2-7.4,16.5-16.5,16.5C85.1,64.5,77.6,57.1,77.6,48z"/></g></g>
</svg>